<svg width="211" height="173" viewBox="0 0 211 173" fill="none" xmlns="http://www.w3.org/2000/svg">
<path d="M0 172.475C0 124.45 0 76.8825 0 29.1826C4.90131 29.0414 9.80862 27.8029 14.509 29.7809C16.8786 30.7789 18.9903 32.3721 21.291 33.5504C27.3022 36.6346 33.2833 39.791 39.4175 42.6076C42.669 44.1016 46.2085 44.6908 49.907 44.2459C54.1754 43.7319 57.199 41.3932 59.5806 38.1196C63.6961 32.4622 63.7441 26.1976 62.1333 19.6625C60.2226 11.9129 55.1473 6.74255 48.7792 2.52207C47.7233 1.82166 46.7784 0.949909 45.8756 0C48.8901 0.204411 51.5298 1.40983 54.1514 2.67838C61.5694 6.2676 67.5265 11.423 71.615 18.6976C74.8035 24.373 75.7214 30.376 74.8935 36.7699C74.1346 42.6347 72.3019 48.0636 68.5734 52.6869C62.8622 59.7661 55.5132 63.5778 46.3045 62.9555C43.8329 62.7872 41.3912 61.8253 38.9855 61.0737C37.4707 60.6018 36.4929 61.1459 36.6069 62.694C36.8258 65.7181 37.0448 68.7452 37.3178 71.7632C37.3598 72.2262 37.6297 72.7011 37.8967 73.1009C40.2514 76.615 41.5292 80.4627 41.9101 84.6922C42.2341 88.2904 41.5382 91.6091 40.0594 94.8436C38.2566 98.7905 37.4737 102.996 37.0058 107.283C36.4389 112.486 35.884 117.693 35.1851 122.881C34.9901 124.333 34.3932 125.758 33.8203 127.128C32.9204 129.278 33.0254 131.34 33.6883 133.546C34.5432 136.393 35.2961 139.294 35.773 142.225C36.1209 144.38 35.2181 146.355 33.7063 147.963C32.7404 148.991 32.3625 150.08 32.7674 151.51C33.1184 152.749 33.3343 154.051 33.4003 155.337C33.5743 158.788 31.8765 161.184 28.517 161.821C25.9824 162.299 24.2486 163.664 22.5928 165.513C18.5854 169.983 13.918 173.103 7.49295 172.508C5.07229 172.288 2.61563 172.475 0 172.475ZM21.0271 94.9067C21.138 95.0119 21.249 95.1172 21.36 95.2254C24.8215 93.1963 28.22 91.047 31.7685 89.1862C33.7993 88.1221 34.2732 86.3365 35.0141 84.2684C33.1903 84.5509 31.5826 84.7583 29.9898 85.0559C26.3633 85.7383 26.3693 85.7563 24.5246 88.9247C23.3667 90.9207 22.1939 92.9137 21.0271 94.9067Z" fill="#FF000C"/>
<path d="M69.7102 83.3305C72.2179 81.0218 75.0375 80.3936 78.22 81.112C80.8147 81.6982 82.9264 83.8806 82.9534 86.5439C83.0343 94.6031 82.9924 102.665 82.9954 110.728C82.9954 110.815 82.9294 110.902 82.8604 111.07C80.6107 111.07 78.328 111.07 75.8564 111.07C75.8564 110.556 75.8564 110.024 75.8564 109.495C75.8564 102.834 75.8594 96.1753 75.8564 89.5139C75.8534 85.7503 74.3416 84.7674 70.7391 86.1922C70.8141 86.7724 70.955 87.3556 70.955 87.9387C70.97 95.5981 70.964 103.258 70.964 111.034C68.5884 111.034 66.2727 111.034 63.7561 111.034C63.7561 110.505 63.7561 109.976 63.7561 109.444C63.7561 102.683 63.6391 95.9198 63.81 89.1652C63.885 86.2043 62.4002 84.8004 58.9777 86.081C58.9777 94.3386 58.9777 102.638 58.9777 111.043C56.5571 111.043 54.2444 111.043 51.8447 111.043C51.8447 101.117 51.8447 91.2273 51.8447 81.1361C53.6355 81.1361 55.4202 81.0759 57.193 81.1842C57.5709 81.2082 57.9099 81.8365 58.1049 82.0259C60.1776 81.62 62.1783 81.097 64.212 80.8685C66.4077 80.625 68.3154 81.4216 69.7102 83.3305Z" fill="#FF000C"/>
<path d="M192.3 114.837C194.103 115.083 195.768 115.312 197.432 115.54C202.166 116.187 204.025 112.366 202.841 108.912C201.248 110.223 197.549 109.991 196.212 108.449C194.478 106.453 192.771 104.433 191.091 102.389C190.833 102.076 190.653 101.595 190.65 101.192C190.623 94.5821 190.632 87.9748 190.632 81.2473C192.972 81.2473 195.246 81.2473 197.708 81.2473C197.708 81.7523 197.708 82.2904 197.708 82.8254C197.708 88.086 197.876 93.3526 197.639 98.6012C197.516 101.343 198.317 103.432 200.201 105.254C200.486 105.53 200.744 105.834 201.083 106.197C202.022 105.22 202.766 104.283 202.748 102.762C202.676 96.1512 202.718 89.5379 202.715 82.9277C202.715 82.3866 202.715 81.8425 202.715 81.2172C205.195 81.2172 207.568 81.2172 210.046 81.2172C210.076 81.6591 210.13 82.092 210.13 82.5248C210.136 91.7414 210.154 100.958 210.121 110.174C210.112 112.79 209.488 115.246 207.406 117.046C205.78 118.456 203.812 119.12 201.692 119.286C198.299 119.547 194.937 119.466 191.667 117.984C191.874 116.959 192.075 115.958 192.3 114.837Z" fill="#FF000C"/>
<path d="M139.063 90.6592C139.063 89.5921 139.147 88.6962 139.045 87.8245C138.854 86.1652 137.444 84.9748 135.488 85.1341C133.589 85.2904 131.721 85.8165 129.693 86.2103C129.693 85.2423 129.636 84.109 129.726 82.9848C129.753 82.6481 130.131 82.1701 130.452 82.0559C133.787 80.8505 137.225 80.3876 140.71 81.2052C143.758 81.9206 146.133 84.8275 146.187 88.2303C146.307 95.7905 146.226 103.354 146.226 111.196C143.938 110.767 141.544 111.978 139.492 110.349C137.93 110.7 136.283 111.278 134.603 111.404C131.84 111.611 129.585 110.373 128.31 107.926C125.76 103.035 125.862 98 127.932 92.9408C129.453 89.2253 136.073 88.2393 138.431 90.2714C138.572 90.3887 138.743 90.4638 139.063 90.6592ZM139.081 100.669C139.081 99.2174 138.997 97.7595 139.102 96.3136C139.24 94.4168 138.401 93.8125 137.072 93.539C135.908 93.3015 134.702 94.1282 134.312 95.538C134.021 96.5811 133.82 97.6873 133.82 98.7665C133.823 101.003 133.88 103.255 134.129 105.473C134.282 106.835 135.5 107.622 136.682 107.49C138.533 107.286 139.084 106.684 139.084 104.872C139.081 103.474 139.081 102.073 139.081 100.669Z" fill="#FF000C"/>
<path d="M95.9926 96.4308C96.1605 99.2835 96.2445 101.968 96.5085 104.631C96.6585 106.137 97.7833 107.033 98.9951 106.937C100.204 106.844 100.885 105.909 101.062 103.997C102.772 103.997 104.493 103.997 106.245 103.997C106.032 106.546 105.645 108.996 103.144 110.286C99.1661 112.336 92.906 112.14 90.5333 106.699C89.6365 104.64 88.9526 102.359 88.7816 100.134C88.4306 95.514 88.3466 90.8636 90.1434 86.4027C92.1501 81.4217 98.1373 79.2242 102.781 81.8846C104.628 82.9427 105.531 84.6892 106.11 86.6552C107.04 89.8085 107.016 93.028 106.905 96.4308C103.3 96.4308 99.781 96.4308 95.9926 96.4308ZM96.0256 92.1532C97.8403 92.1532 99.3491 92.1532 101.059 92.1532C100.909 90.4127 100.867 88.7744 100.597 87.1752C100.426 86.1772 99.841 85.3235 98.5992 85.3235C97.3664 85.3235 96.6075 85.9337 96.4635 87.1421C96.2655 88.7564 96.1725 90.3857 96.0256 92.1532Z" fill="#FF000C"/>
<path d="M181.555 84.8455C181.555 86.1652 181.552 87.2533 181.555 88.3415C181.57 93.545 181.54 98.7515 181.624 103.955C181.666 106.489 182.308 107.048 184.816 107.265C185.008 107.283 185.2 107.319 185.461 107.355C185.461 108.569 185.461 109.754 185.461 111.311C183.034 111.121 180.587 111.166 178.247 110.679C175.643 110.138 174.192 107.568 174.186 104.28C174.174 98.3727 174.183 92.4688 174.183 86.562C174.183 86.0239 174.183 85.4828 174.183 84.8215C173.229 84.7764 172.404 84.7403 171.495 84.6982C171.495 83.5108 171.495 82.3926 171.495 81.1781C172.362 81.1781 173.145 81.1781 174.096 81.1781C174.096 78.1631 174.096 75.2412 174.096 72.1991C176.621 72.1991 178.991 72.1991 181.504 72.1991C181.504 75.0669 181.504 77.9917 181.504 81.0609C183.067 81.0609 184.495 81.0609 186.04 81.0609C186.04 82.3715 186.04 83.5439 186.04 84.8455C184.672 84.8455 183.244 84.8455 181.555 84.8455Z" fill="#FF000C"/>
<path d="M168.39 88.2934C166.165 88.2934 164.377 88.2934 162.769 88.2934C162.31 87.4518 162.061 86.5469 161.467 86.057C160.963 85.6421 159.926 85.3986 159.374 85.6421C158.75 85.9187 158.114 86.7754 157.997 87.4668C157.712 89.1351 158.723 90.4187 159.83 91.5219C161.845 93.53 163.942 95.4568 165.979 97.4468C169.152 100.546 168.792 106.48 166.561 108.819C164.203 111.287 161.287 111.714 158.084 111.296C155.027 110.899 152.682 109.633 151.83 106.441C151.602 105.587 151.521 104.694 151.356 103.729C153.338 103.729 155.222 103.729 157.178 103.729C157.301 104.219 157.379 104.746 157.568 105.232C158.09 106.579 159.422 107.141 160.744 106.618C161.806 106.197 162.412 104.601 161.785 103.447C161.32 102.587 160.66 101.8 159.965 101.102C157.928 99.0581 155.678 97.2064 153.791 95.039C150.957 91.7835 151.203 85.4407 154.01 82.8315C157.247 79.8254 165.448 79.9427 167.415 84.7283C167.85 85.7954 168.033 86.9708 168.39 88.2934Z" fill="#FF000C"/>
<path d="M112.655 72.151C115.121 72.151 117.4 72.151 119.86 72.151C119.86 72.7552 119.86 73.2903 119.86 73.8254C119.86 83.9467 119.86 94.068 119.86 104.189C119.86 106.573 120.121 106.883 122.539 107.397C122.539 108.563 122.539 109.751 122.539 111.275C120.319 111.127 118.072 111.172 115.907 110.776C113.852 110.4 112.685 108.401 112.667 105.801C112.634 100.639 112.655 95.4779 112.655 90.3195C112.655 84.3074 112.655 78.3014 112.655 72.151Z" fill="#FF000C"/>
</svg>
