<svg width="200" height="200" viewBox="0 0 200 200" fill="none" xmlns="http://www.w3.org/2000/svg">
<rect width="200" height="200" rx="16" fill="white"/>
<path d="M54.025 69.0418L93.35 69.0418L93.35 142.5C93.35 144.292 95.1375 151.458 104.075 151.458C113.012 151.458 114.8 144.292 114.8 142.5L114.8 69.0418L146.975 69.0418L146.975 153.25C146.975 155.042 148.762 164 159.487 164C170.212 164 172 155.042 172 153.25L172 56.5001C172 52.9167 171.671 45.4206 166.637 40.3751C161.604 35.3296 154.11 35 150.55 35.0001C143.4 35.0002 57.5999 34.9999 50.4499 35C46.8749 35.0001 39.3962 35.3295 34.3624 40.375C29.3286 45.4206 29 52.9166 29 56.5001L29 153.25C29 155.042 30.7875 164 41.5125 164C52.2375 164 54.025 155.042 54.025 153.25L54.025 69.0418Z" fill="black" stroke="black"/>
</svg>
