<svg width="52" height="120" viewBox="0 0 52 120" fill="none" xmlns="http://www.w3.org/2000/svg">
<path d="M0 119.926C0 86.5336 0 53.4585 0 20.2915C3.39005 20.1933 6.78425 19.3321 10.0353 20.7075C11.6743 21.4014 13.1349 22.5092 14.7262 23.3285C18.8839 25.4731 23.0208 27.6678 27.2635 29.6263C29.5125 30.6651 31.9606 31.0748 34.5187 30.7654C37.471 30.408 39.5623 28.7818 41.2096 26.5056C44.0561 22.5719 44.0893 18.216 42.9752 13.6719C41.6536 8.2834 38.1432 4.68828 33.7387 1.75366C33.0084 1.26665 32.3548 0.660498 31.7304 0C33.8154 0.142133 35.6412 0.980296 37.4544 1.86235C42.5852 4.35803 46.7055 7.9427 49.5333 13.0009C51.7387 16.9472 52.3736 21.1213 51.8009 25.5671C51.276 29.6451 50.0084 33.42 47.4296 36.6347C43.4793 41.557 38.3963 44.2074 32.027 43.7747C30.3175 43.6577 28.6287 42.9888 26.9648 42.4663C25.9171 42.1381 25.2407 42.5164 25.3196 43.5929C25.471 45.6956 25.6225 47.8004 25.8113 49.899C25.8403 50.2209 26.027 50.5511 26.2117 50.8291C27.8403 53.2725 28.7241 55.948 28.9876 58.8889C29.2117 61.3908 28.7304 63.6984 27.7075 65.9474C26.4606 68.6918 25.9191 71.616 25.5955 74.5966C25.2034 78.2147 24.8196 81.8349 24.3362 85.4425C24.2013 86.4521 23.7884 87.4429 23.3922 88.396C22.7698 89.8905 22.8424 91.3243 23.3009 92.8585C23.8922 94.8379 24.4129 96.855 24.7428 98.8929C24.9835 100.392 24.359 101.765 23.3133 102.883C22.6453 103.598 22.3839 104.355 22.6639 105.349C22.9067 106.211 23.0561 107.116 23.1017 108.01C23.222 110.41 22.0478 112.076 19.7241 112.519C17.971 112.851 16.7718 113.8 15.6266 115.086C12.8548 118.194 9.62658 120.363 5.18258 119.949C3.50831 119.797 1.80913 119.926 0 119.926ZM14.5436 65.9913C14.6204 66.0644 14.6971 66.1376 14.7739 66.2129C17.1681 64.802 19.5187 63.3075 21.9731 62.0137C23.3776 61.2737 23.7054 60.0322 24.2179 58.5941C22.9565 58.7906 21.8444 58.9348 20.7428 59.1418C18.2345 59.6162 18.2386 59.6288 16.9627 61.8318C16.1619 63.2197 15.3507 64.6055 14.5436 65.9913Z" fill="#FF000C"/>
</svg>
